# xmcd CD database file
#
# Track frame offsets:
#	150
#	14152
#	29702
#	43310
#	63790
#	77067
#	95810
#	108592
#	134450
#	151367
#	173945
#	186487
#
# Disc length: 2827 seconds
#
# Revision: 0
# Processed by: cddbd v1.4PL0 Copyright (c) Steve Scherf et al.
# Submitted via: CDex 1.40Release
#
DISCID=b10b090c
DTITLE=John Weston - Got To Deal With The Blues
DYEAR=1900
DGENRE=Blues
TTITLE0=I'm Not Your Garbage Man
TTITLE1=Don't Even Try
TTITLE2=Phony Woman
TTITLE3=Mighty Mississippi
TTITLE4=Pretty, Pretty Woman
TTITLE5=Sounds Like My Baby
TTITLE6=Side Dish
TTITLE7=Good to Be Free
TTITLE8=Got to Deal with the Blues
TTITLE9=One Sided Love Affair
TTITLE10=Liquid Love
TTITLE11=The Blues Got Me Too
EXTD=ID3G: 0
EXTT0=
EXTT1=
EXTT2=
EXTT3=
EXTT4=
EXTT5=
EXTT6=
EXTT7=
EXTT8=
EXTT9=
EXTT10=
EXTT11=
PLAYORDER=
